<svg xmlns="http://www.w3.org/2000/svg" xmlns:xlink="http://www.w3.org/1999/xlink" version="1.1" x="0px" y="0px" viewBox="0 0 100 100" enable-background="new 0 0 100 100" xml:space="preserve"><g><g><path d="M28.261,96.699c-4.057,0-9.968-1.575-16.701-8.311C-0.848,75.982,4.438,66.183,4.671,65.771    c0.13-0.235,0.295-0.451,0.484-0.641L66.121,4.166c1.154-1.154,3.023-1.154,4.177,0c1.154,1.152,1.154,3.022,0,4.177L9.702,68.939    c-0.503,1.312-2.065,7.171,6.035,15.272c8.019,8.017,13.71,6.707,15.1,6.203l60.767-60.766c1.153-1.154,3.022-1.154,4.177,0    c1.153,1.153,1.153,3.022,0,4.177l-61.16,61.16c-0.196,0.196-0.417,0.363-0.662,0.498C33.774,95.584,31.673,96.699,28.261,96.699z    "/></g><g><path d="M39.537,50.572c-0.755,0-1.512-0.288-2.088-0.865c-1.154-1.154-1.154-3.023,0-4.179l35.017-35.017    c1.154-1.153,3.023-1.153,4.177,0c1.155,1.153,1.155,3.023,0,4.178L41.626,49.707C41.048,50.284,40.293,50.572,39.537,50.572z"/></g><g><path d="M52.331,63.366c-0.757,0-1.512-0.289-2.09-0.866c-1.152-1.153-1.152-3.023,0-4.178L85.26,23.307    c1.153-1.154,3.023-1.154,4.177,0c1.155,1.152,1.155,3.021,0,4.177L54.419,62.5C53.842,63.077,53.087,63.366,52.331,63.366z"/></g><g><path d="M44.204,80.76c-4.057,0-9.967-1.575-16.702-8.312c-12.405-12.407-7.121-22.205-6.89-22.616    c0.797-1.424,2.601-1.933,4.021-1.128c1.409,0.79,1.919,2.564,1.152,3.979c-0.177,0.352-3.104,6.585,5.895,15.588    c9.07,9.07,15.167,6.199,15.422,6.072c1.44-0.718,3.216-0.162,3.96,1.259c0.745,1.424,0.246,3.166-1.161,3.942    C49.717,79.646,47.614,80.759,44.204,80.76z"/></g><g><path d="M51.474,73.489c-4.058,0-9.968-1.576-16.701-8.312c-12.407-12.406-7.123-22.205-6.891-22.615    c0.796-1.423,2.599-1.93,4.021-1.128c1.41,0.79,1.917,2.564,1.15,3.98c-0.176,0.348-3.106,6.583,5.895,15.585    c9.144,9.144,15.309,6.136,15.37,6.103c1.428-0.79,3.227-0.271,4.013,1.158c0.79,1.429,0.27,3.226-1.159,4.014    C56.988,72.373,54.886,73.489,51.474,73.489z"/></g><g><path d="M58.745,66.218c-4.057,0-9.967-1.576-16.701-8.31c-12.407-12.407-7.122-22.206-6.891-22.619    c0.8-1.421,2.597-1.931,4.023-1.127c1.407,0.792,1.916,2.564,1.149,3.98c-0.176,0.353-3.104,6.587,5.895,15.589    c9.138,9.138,15.306,6.13,15.368,6.099c1.427-0.789,3.226-0.268,4.013,1.159c0.789,1.43,0.27,3.226-1.159,4.013    C64.26,65.104,62.155,66.217,58.745,66.218z"/></g></g></svg>